<svg xmlns="http://www.w3.org/2000/svg" width="40" height="40" viewBox="0 0 250 250">
<path  d="M246,144.9v12.6c0,4.6-3.8,8.4-8.4,8.4h-8.8c0.2-1.4,0.4-2.8,0.4-4.2c0-14-11.3-25.3-25.3-25.3s-25.3,11.3-25.3,25.3c0,1.4,0.1,2.8,0.4,4.2H68.6c0.2-1.4,0.4-2.8,0.4-4.2c0-14-11.3-25.3-25.3-25.3c-14,0-25.3,11.3-25.3,25.3c0,1.4,0.1,2.8,0.4,4.2h-0.4c-4.6,0-8.4-3.8-8.4-8.4v-12.6c0-0.8,0.1-1.5,0.3-2.2c1.8-11.5,5.1-22.5,6.8-25.6c0.7-1.3,1.3-1.9,1.3-1.9c0.3-1.3,15.2-26.5,17-28.6c5.7-10.4,29.2-9.2,29.2-9.2s66.2,0.1,77.7,0.1c9.3,0.7,10.1,2.7,13.8,5.6c1.5,1.2,34.7,32.2,36.5,32.3c27.7,0.2,34.2,4.1,34.2,4.1C247,130.4,246,144.9,246,144.9z M85.9,90.1c0,0-15.5,0-25.3,0c-9.8,0-12.6,8.4-12.6,8.4l-4.7,10.5l42.6,2.1V90.1z M149.1,97.5c0,0-5.9-7.4-10.1-7.4c-4.2,0-44.6,0.1-44.6,0.1v21l46.2,3v-5.9c0,0,1.5-3.7,4.9-3c2.9,0.6,6,3.9,8.7,9.8l12.4,0.8L149.1,97.5z M43.7,144.9c9.3,0,16.9,7.5,16.9,16.9s-7.5,16.9-16.9,16.9s-16.9-7.5-16.9-16.9S34.4,144.9,43.7,144.9z M203.8,144.9c9.3,0,16.9,7.5,16.9,16.9s-7.5,16.9-16.9,16.9c-9.3,0-16.9-7.5-16.9-16.9S194.5,144.9,203.8,144.9z">
<animateTransform
      attributeName="transform"
      attributeType="XML"
      type="translate"
      dur="2s"
      values="0 0; -10 0; 0 0"
      repeatCount="indefinite" />
            
    </path>
</svg>