<svg width="44" height="32" viewBox="0 0 22 16" fill="none" xmlns="http://www.w3.org/2000/svg">
<path d="M1.04373 9.79994C0.318757 9.05288 0.318756 7.84165 1.04373 7.09459C1.7687 6.34753 2.94412 6.34753 3.66909 7.09459L9.14212 12.7344C9.86709 13.4814 9.86709 14.6926 9.14212 15.4397C8.41715 16.1868 7.24173 16.1868 6.51676 15.4397L1.04373 9.79994Z" fill="#00AE84"/>
<path d="M18.3309 0.560296C19.0559 -0.186765 20.2313 -0.186765 20.9563 0.560296C21.6812 1.30736 21.6812 2.51858 20.9563 3.26564L9.14212 15.4397C8.41715 16.1868 7.24173 16.1868 6.51676 15.4397C5.79178 14.6926 5.79179 13.4814 6.51676 12.7344L18.3309 0.560296Z" fill="#00AE84"/>
</svg>
