<svg width="22" height="24" viewBox="0 0 22 24" fill="none" xmlns="http://www.w3.org/2000/svg">
<path d="M8.13972 8.75516C8.3708 8.03229 8.82692 7.42273 9.42729 7.03446C10.0277 6.6462 10.7335 6.50427 11.4199 6.63381C12.1062 6.76336 12.7288 7.15603 13.1772 7.74226C13.6257 8.3285 13.8712 9.07047 13.8701 9.83677C13.8701 12 10.9214 13.0816 10.9214 13.0816M11 17.408H11.0098M20.8292 12C20.8292 17.9735 16.4285 22.8161 11 22.8161C5.5715 22.8161 1.17084 17.9735 1.17084 12C1.17084 6.02643 5.5715 1.1839 11 1.1839C16.4285 1.1839 20.8292 6.02643 20.8292 12Z" stroke="#949494" stroke-width="2.33" stroke-linecap="round" stroke-linejoin="round"/>
</svg>
