<svg width="173" height="131" viewBox="0 0 173 131" fill="none" xmlns="http://www.w3.org/2000/svg">
<path fill-rule="evenodd" clip-rule="evenodd" d="M165.23 29.9007C169.222 29.9007 172.459 33.1379 172.459 37.1312C172.459 41.1246 169.222 44.3618 165.23 44.3618H123.923C127.915 44.3618 131.151 47.599 131.151 51.5924C131.151 55.5857 127.915 58.8229 123.923 58.8229H146.642C150.634 58.8229 153.871 62.0602 153.871 66.0535C153.871 70.0469 150.634 73.2841 146.642 73.2841H136.135C131.102 73.2841 127.021 76.5213 127.021 80.5147C127.021 83.1769 129.086 85.5871 133.217 87.7452C137.209 87.7452 140.446 90.9825 140.446 94.9758C140.446 98.9692 137.209 102.206 133.217 102.206H47.5037C43.5113 102.206 40.2748 98.9692 40.2748 94.9758C40.2748 90.9825 43.5113 87.7452 47.5037 87.7452H7.22882C3.23646 87.7452 0 84.508 0 80.5147C0 76.5213 3.23646 73.2841 7.22882 73.2841H48.5363C52.5287 73.2841 55.7652 70.0469 55.7652 66.0535C55.7652 62.0602 52.5287 58.8229 48.5363 58.8229H22.7191C18.7268 58.8229 15.4903 55.5857 15.4903 51.5924C15.4903 47.599 18.7268 44.3618 22.7191 44.3618H64.0267C60.0343 44.3618 56.7979 41.1246 56.7979 37.1312C56.7979 33.1379 60.0343 29.9007 64.0267 29.9007H165.23ZM165.23 58.8229C169.222 58.8229 172.459 62.0602 172.459 66.0535C172.459 70.0469 169.222 73.2841 165.23 73.2841C161.238 73.2841 158.001 70.0469 158.001 66.0535C158.001 62.0602 161.238 58.8229 165.23 58.8229Z" fill="#F3F7FF"/>
<path fill-rule="evenodd" clip-rule="evenodd" d="M165.23 29.9007C169.222 29.9007 172.459 33.1379 172.459 37.1312C172.459 41.1246 169.222 44.3618 165.23 44.3618H123.923C127.915 44.3618 131.151 47.599 131.151 51.5924C131.151 55.5857 127.915 58.8229 123.923 58.8229H146.642C150.634 58.8229 153.871 62.0602 153.871 66.0535C153.871 70.0469 150.634 73.2841 146.642 73.2841H136.135C131.102 73.2841 127.021 76.5213 127.021 80.5147C127.021 83.1769 129.086 85.5871 133.217 87.7452C137.209 87.7452 140.446 90.9825 140.446 94.9758C140.446 98.9692 137.209 102.206 133.217 102.206H47.5037C43.5113 102.206 40.2748 98.9692 40.2748 94.9758C40.2748 90.9825 43.5113 87.7452 47.5037 87.7452H7.22882C3.23646 87.7452 0 84.508 0 80.5147C0 76.5213 3.23646 73.2841 7.22882 73.2841H48.5363C52.5287 73.2841 55.7652 70.0469 55.7652 66.0535C55.7652 62.0602 52.5287 58.8229 48.5363 58.8229H22.7191C18.7268 58.8229 15.4903 55.5857 15.4903 51.5924C15.4903 47.599 18.7268 44.3618 22.7191 44.3618H64.0267C60.0343 44.3618 56.7979 41.1246 56.7979 37.1312C56.7979 33.1379 60.0343 29.9007 64.0267 29.9007H165.23ZM165.23 58.8229C169.222 58.8229 172.459 62.0602 172.459 66.0535C172.459 70.0469 169.222 73.2841 165.23 73.2841C161.238 73.2841 158.001 70.0469 158.001 66.0535C158.001 62.0602 161.238 58.8229 165.23 58.8229Z" fill="#F3F7FF"/>
<path fill-rule="evenodd" clip-rule="evenodd" d="M32.8092 59.8559H31.8304C25.5686 59.8559 20.4924 54.7859 20.4924 48.5318C20.4924 42.2777 25.5686 37.2077 31.8304 37.2077C31.8708 37.2077 31.9112 37.208 31.9515 37.2084C32.9594 28.4371 40.1351 21.6371 48.8373 21.6371C58.0093 21.6371 65.4855 29.1912 65.8316 38.6456C71.3776 39.0037 76.2576 44.4027 76.2576 50.0323C76.2576 54.6547 72.8352 59.8559 68.7807 59.8559H40.5867" fill="white"/>
<path d="M32.8092 59.8559H31.8304C25.5686 59.8559 20.4924 54.7859 20.4924 48.5318C20.4924 42.2777 25.5686 37.2077 31.8304 37.2077C31.8708 37.2077 31.9112 37.208 31.9515 37.2084C32.9594 28.4371 40.1351 21.6371 48.8373 21.6371C58.0093 21.6371 65.4855 29.1912 65.8316 38.6456C71.3776 39.0037 76.2576 44.4027 76.2576 50.0323C76.2576 54.6547 72.8352 59.8559 68.7807 59.8559H40.5867" stroke="#75A4FE" stroke-width="2.5" stroke-linecap="round"/>
<path d="M95.142 106.614C94.9588 106.844 94.753 107.053 94.528 107.239C92.7452 108.713 90.1301 108.44 88.6765 106.614C78.057 93.2692 70.1227 81.7083 64.8488 71.9232C59.5606 62.1114 57.0152 54.2073 57.0152 48.1431C57.0152 28.4674 72.66 12.5577 91.9093 12.5577C111.159 12.5577 126.803 28.4674 126.803 48.1431C126.803 54.2073 124.258 62.1114 118.97 71.9232C113.696 81.7083 105.762 93.2692 95.142 106.614Z" fill="white" stroke="#1F64E7" stroke-width="2.5"/>
<path fill-rule="evenodd" clip-rule="evenodd" d="M65.0829 64.2423C65.9497 66.1958 66.9596 68.2627 68.1195 70.4454C73.0551 79.733 80.5232 90.7822 90.5922 103.614C91.1972 104.385 92.2486 104.485 92.969 103.881C93.0625 103.802 93.1488 103.713 93.2263 103.614C103.295 90.7822 110.763 79.733 115.699 70.4454C120.674 61.0831 122.89 53.8512 122.89 48.5602C122.89 35.4791 115.352 24.2805 104.58 19.2728C103.135 24.2306 101.162 28.9633 98.7254 33.4061C104.562 36.0527 108.629 41.9938 108.629 48.8986C108.629 58.2662 101.143 65.86 91.9093 65.86C85.6865 65.86 80.2578 62.4114 77.3788 57.2954C73.5436 60.0003 69.4275 62.3335 65.0829 64.2423Z" fill="#E8F0FE"/>
<path d="M74.2651 105.503C74.9446 105.381 75.3968 104.731 75.2751 104.052C75.1535 103.372 74.5039 102.92 73.8244 103.042L74.2651 105.503ZM66.6281 104.725C65.9667 104.923 65.5911 105.62 65.7891 106.281C65.9871 106.943 66.6837 107.318 67.3451 107.12L66.6281 104.725ZM63.1903 108.608C63.8243 108.335 64.117 107.6 63.8439 106.966C63.5708 106.332 62.8355 106.039 62.2014 106.312L63.1903 108.608ZM110.539 103.141C109.86 103.015 109.208 103.463 109.081 104.141C108.955 104.82 109.403 105.473 110.081 105.599L110.539 103.141ZM73.8244 103.042C71.2194 103.508 68.8034 104.074 66.6281 104.725L67.3451 107.12C69.4167 106.5 71.739 105.955 74.2651 105.503L73.8244 103.042ZM62.2014 106.312C59.9484 107.282 58.0703 108.4 56.7363 109.664C55.4006 110.93 54.5152 112.44 54.5152 114.152H57.0152C57.0152 113.362 57.4158 112.465 58.4559 111.479C59.4975 110.492 61.0849 109.515 63.1903 108.608L62.2014 106.312ZM54.5152 114.152C54.5152 116.3 55.8982 118.12 57.8599 119.578C59.845 121.053 62.6379 122.329 65.9767 123.379C72.669 125.483 81.8373 126.764 91.9093 126.764V124.264C82.0194 124.264 73.1157 123.002 66.7264 120.994C63.5244 119.987 61.024 118.815 59.3512 117.571C57.655 116.311 57.0152 115.141 57.0152 114.152H54.5152ZM91.9093 126.764C101.981 126.764 111.15 125.483 117.842 123.379C121.181 122.329 123.973 121.053 125.959 119.578C127.92 118.12 129.303 116.3 129.303 114.152H126.803C126.803 115.141 126.164 116.311 124.467 117.571C122.794 118.815 120.294 119.987 117.092 120.994C110.703 123.002 101.799 124.264 91.9093 124.264V126.764ZM129.303 114.152C129.303 111.318 126.923 109.05 123.759 107.342C120.493 105.579 115.917 104.143 110.539 103.141L110.081 105.599C115.325 106.576 119.621 107.95 122.571 109.542C125.623 111.19 126.803 112.823 126.803 114.152H129.303Z" fill="#1F64E7"/>
<path d="M108.215 48.4936C108.215 57.5016 100.914 64.8035 91.9093 64.8035C82.9042 64.8035 75.6036 57.5016 75.6036 48.4936C75.6036 39.4855 82.9042 32.1836 91.9093 32.1836C100.914 32.1836 108.215 39.4855 108.215 48.4936Z" stroke="#1F64E7" stroke-width="2.5"/>
<path fill-rule="evenodd" clip-rule="evenodd" d="M136.05 21.7507C135.136 19.4639 133.324 17.6519 131.038 16.737L129.086 15.956L131.038 15.1749C133.324 14.26 135.136 12.448 136.05 10.1612L136.831 8.20893L137.612 10.1612C138.527 12.448 140.338 14.26 142.625 15.1749L144.576 15.956L142.625 16.737C140.338 17.6519 138.527 19.4639 137.612 21.7507L136.831 23.703L136.05 21.7507Z" stroke="#75A4FE" stroke-width="2.5" stroke-linejoin="round"/>
<path fill-rule="evenodd" clip-rule="evenodd" d="M115.342 94.9758H114.628C110.066 94.9758 106.367 91.2761 106.367 86.7123C106.367 82.1485 110.066 78.4488 114.628 78.4488C114.658 78.4488 114.687 78.4489 114.717 78.4492C115.451 72.0486 120.68 67.0865 127.021 67.0865C133.704 67.0865 139.152 72.5989 139.404 79.4981C143.445 79.7594 147.001 83.6992 147.001 87.8073C147.001 91.1804 144.507 94.9758 141.553 94.9758H121.009" fill="white"/>
<path d="M115.342 94.9758H114.628C110.066 94.9758 106.367 91.2761 106.367 86.7123C106.367 82.1485 110.066 78.4488 114.628 78.4488C114.658 78.4488 114.687 78.4489 114.717 78.4492C115.451 72.0486 120.68 67.0865 127.021 67.0865C133.704 67.0865 139.152 72.5989 139.404 79.4981C143.445 79.7594 147.001 83.6992 147.001 87.8073C147.001 91.1804 144.507 94.9758 141.553 94.9758H121.009" stroke="#75A4FE" stroke-width="2.5" stroke-linecap="round"/>
</svg>
