<svg 
          width="45" 
          height="37" fill="none" 
          xmlns="http://www.w3.org/2000/svg">
          <path d="M 10.124999540192741 0 C 11.616842278412411 6.418476861114186e-17 13.047583528927394 0.6090941740118938 14.102475643157959 1.6932889223098755 C 15.157367757388524 2.7774836706078574 15.750000306538173 4.247967134351316 15.750000306538174 5.78125 C 15.750000306538173 7.314532865648684 15.157367757388524 8.785016137620676 14.102475643157959 9.869210885918658 C 13.047583528927394 10.95340563421664 11.616842278412411 11.562499999999998 10.124999540192741 11.5625 C 8.63315680197307 11.562499999999998 7.20241631780352 10.95340563421664 6.147524203572955 9.869210885918658 C 5.0926320893423895 8.785016137620676 4.499999923365457 7.314532865648684 4.499999923365457 5.78125 C 4.499999923365457 4.247967134351316 5.0926320893423895 2.7774836706078574 6.147524203572955 1.6932889223098755 C 7.20241631780352 0.6090941740118938 8.63315680197307 1.0269562977782698e-15 10.124999540192741 0 Z M 35.999999386923655 0 C 37.49184212514332 6.418476861114186e-17 38.92258414200374 0.6090941740118938 39.977476256234304 1.6932889223098755 C 41.032368370464866 2.7774836706078574 41.624999386923655 4.247967134351316 41.624999386923655 5.78125 C 41.624999386923655 7.314532865648684 41.032368370464866 8.785016137620676 39.977476256234304 9.869210885918658 C 38.92258414200374 10.95340563421664 37.49184212514332 11.562499999999998 35.999999386923655 11.5625 C 34.50815664870399 11.562499999999998 33.07741463184357 10.95340563421664 32.022522517613005 9.869210885918658 C 30.96763040338244 8.785016137620676 30.374999386923655 7.314532865648684 30.374999386923655 5.78125 C 30.374999386923655 4.247967134351316 30.96763040338244 2.7774836706078574 32.022522517613005 1.6932889223098755 C 33.07741463184357 0.6090941740118938 34.50815664870399 1.0269562977782698e-15 35.999999386923655 0 Z M 0 21.585742494334347 C 0 17.32929695170859 3.360937024865832 13.875 7.502343228885106 13.875 L 10.504686917577471 13.875 C 11.622655583279474 13.875 12.684375260557449 14.127930023100065 13.640625306538174 14.575976869334346 C 13.549219059890936 15.096289340568626 13.50703137261527 15.638281240411427 13.50703137261527 16.1875 C 13.50703137261527 18.948046990062878 14.688281204019273 21.4267578125 16.55156237738473 23.125 C 16.53749987732486 23.125 16.52343682645421 23.125 16.502343075616018 23.125 L 1.4976561388799123 23.125 C 0.6749999310289111 23.125 0 22.431250326011494 0 21.585742494334347 Z M 28.497655391693115 23.125 C 28.483592891633243 23.125 28.46953137345346 23.125 28.44843762261527 23.125 C 30.31875020691327 21.4267578125 31.49296862738473 18.948046990062878 31.49296862738473 16.1875 C 31.49296862738473 15.638281240411427 31.443748164123722 15.103515960600065 31.35937316077096 14.575976869334346 C 32.31562320675169 14.120703403068626 33.37734518306596 13.875 34.495313848767964 13.875 L 37.49765600476946 13.875 C 41.63906220878874 13.875 45 17.32929695170859 45 21.585742494334347 C 45 22.4384768501572 44.3249995900052 23.125 43.502343382154194 23.125 L 28.497655391693115 23.125 Z M 15.750000306538174 16.1875 C 15.750000306538174 14.347560561221579 16.461158426744596 12.58298040472943 17.72702898297991 11.281946783480437 C 18.992899539215223 9.980913162231445 20.709788714136398 9.250000000000002 22.5 9.25 C 24.290211285863602 9.250000000000002 26.007100460784777 9.980913162231445 27.27297101702009 11.281946783480437 C 28.538841573255404 12.58298040472943 29.249998160770957 14.347560561221579 29.24999816077096 16.1875 C 29.24999816077096 18.027439438778423 28.538841573255404 19.792020362356435 27.27297101702009 21.093053983605426 C 26.007100460784777 22.394087604854416 24.290211285863602 23.125 22.5 23.125 C 20.709788714136398 23.125 18.992899539215223 22.394087604854416 17.72702898297991 21.093053983605426 C 16.461158426744596 19.792020362356435 15.750000306538174 18.027439438778423 15.750000306538174 16.1875 Z M 8.999999846730914 35.07050597149393 C 8.999999846730914 29.75175620161969 13.197655422346934 25.4375 18.372655085154943 25.4375 L 26.627343382154194 25.4375 C 31.802343044962203 25.4375 35.999999386923655 29.75175620161969 35.999999386923655 35.07050597149393 C 35.999999386923655 36.132810678171076 35.16328035720757 37 34.122655391693115 37 L 10.87734307561602 37 C 9.843749329447746 37 8.999999846730914 36.14003720231678 8.999999846730914 35.07050597149393 Z" fill="rgb(0,0,0)"/>
        </svg>